<svg xmlns="http://www.w3.org/2000/svg" xmlns:svg="http://www.w3.org/2000/svg" id="svg38" role="img" version="1.1" viewBox="6 7.88 77.87 74.12"><g id="g38" stroke-dasharray="none" stroke-miterlimit="4" transform="translate(436.449 62.07) translate(147.457 158.575) scale(1.1372)"><path id="path1" fill="none" fill-opacity="1" stroke="#3c6eb4" stroke-linejoin="round" stroke-opacity="1" stroke-width="1.374" d="M-444.08179-150.6252c-2.77363.65127-4.83282.84476-7.76516.85419"/><g id="g15" stroke-width="1.073" transform="matrix(1.61304 0 0 1.6122 -2404.495 261.954)"><path id="path2" fill="#d7d8da" fill-opacity="1" stroke="#000" stroke-linejoin="round" stroke-opacity="1" stroke-width=".852" d="M1196.4002-277.28841c-6.3145 0-11.4334 5.11824-11.4334 11.4319 0 5.60953.1555 10.87478-3.8973 11.52796 2.2201 1.74955 31.1822 1.47773 31.1822.0657-3.9446-.40986-3.9311-5.05055-4.1745-11.47895-.2435-6.42839-5.3624-11.54663-11.677-11.54663z" opacity="1"/><ellipse id="ellipse2" cx="1196.49" cy="-221.692" fill="#f1f1f1" fill-opacity="1" stroke="none" stroke-dashoffset="6" stroke-linecap="square" stroke-linejoin="miter" stroke-opacity="1" stroke-width=".852" opacity="1" rx="1.219" ry="1.278" transform="rotate(-2.015) skewX(-.002)"/><ellipse id="ellipse3" cx="1205.798" cy="-224.762" fill="#fff" fill-opacity="1" stroke="#60605b" stroke-dashoffset="6" stroke-linecap="square" stroke-linejoin="miter" stroke-opacity="1" stroke-width=".852" opacity="1" rx="3.837" ry="3.392" transform="matrix(.99946 -.03273 .03772 .99929 0 0)"/><path id="path3" fill="none" fill-opacity="1" stroke="#000" stroke-dashoffset="0" stroke-linecap="square" stroke-linejoin="miter" stroke-opacity="1" stroke-width=".568" d="M1203.9748-270.3367c-.3302-.40944-.849-.66007-1.375-.66415-.4959-.004-.9897.21029-1.3258.57498"/><g id="g5" fill="none" fill-rule="evenodd" stroke="#000" stroke-dasharray="none" stroke-linecap="butt" stroke-linejoin="miter" stroke-miterlimit="4" stroke-opacity="1" stroke-width=".82" transform="matrix(.69367 -.00293 .0029 .69136 529.169 -257.198) translate(0 -.53)"><path id="path4" d="M962.30591-5.783l.0993 1.98438s1.58751 1.42213 2.51355-.03308c0 0-.0993-.82682-.16541-1.0914"/><path id="path5" d="M962.28751-5.783l-.0993 1.98438s-1.58751 1.42213-2.51355-.03308c0 0 .0993-.82682.16541-1.0914"/></g><path id="path6" fill="gray" fill-opacity="1" stroke="#000" stroke-dashoffset="0" stroke-linecap="square" stroke-linejoin="miter" stroke-opacity="1" stroke-width=".568" d="M1197.9362-265.07184c-.1012-.25799-.1029-.77483-.4026-.77357-.2995.002-.5774-.1914-.872-.19011-.2946.002-.571.19636-.8707.19765-.2993.002-.2975.51817-.396.77704-.1011.25897 1.275 1.09288 1.275 1.09288s1.3673-.84575 1.2663-1.10389z"/><path id="path7" fill="none" fill-opacity="1" stroke="#000" stroke-dashoffset="0" stroke-linecap="square" stroke-linejoin="miter" stroke-opacity="1" stroke-width=".568" d="M1188.9919-270.28459c.3005-.43161.8005-.71808 1.3248-.75912.4944-.0387 1.002.14023 1.3629.48043"/><g id="g8" fill-opacity="1" stroke-dashoffset="0" stroke-linecap="square" stroke-linejoin="miter" stroke-opacity="1" stroke-width=".852" transform="translate(-.132 -148.994)"><ellipse id="ellipse7" cx="-1206.346" cy="-75.636" fill="#000" stroke="#892ca0" rx="1.87" ry="1.943" transform="matrix(-.99938 .03515 .03513 .99938 0 0)"/><ellipse id="ellipse8" cx="1206.915" cy="-76.183" fill="#fff" stroke="none" rx=".919" ry=".968" transform="rotate(-2.014) skewX(-.001)"/></g><g id="g10" fill="none" fill-rule="evenodd" stroke="#60605b" stroke-dasharray="none" stroke-linecap="butt" stroke-linejoin="miter" stroke-miterlimit="4" stroke-opacity="1" stroke-width=".655" transform="matrix(-.86763 -.04368 -.044 .8649 2029.588 -215.69)"><path id="path8" d="M956.32834-6.2875c-2.17461.00853-3.90258.728-5.25392 1.6252"/><path id="path9" d="M957.00529-5.38891c-2.45021.3102-3.99116 1.66666-5.21618 2.9994"/><path id="path10" d="M957.14608-4.45025c-2.0377.80624-3.03766 2.46844-3.7999 4.05764"/></g><g id="g13" fill="none" fill-rule="evenodd" stroke="#60605b" stroke-dasharray="none" stroke-linecap="butt" stroke-linejoin="miter" stroke-miterlimit="4" stroke-opacity="1" stroke-width=".655" transform="matrix(.8634 -.0961 .09623 .86065 368.135 -165.5)"><path id="path11" d="M956.32834-6.2875c-2.17461.00853-3.90258.728-5.25392 1.6252"/><path id="path12" d="M957.00529-5.38891c-2.45021.3102-3.99116 1.66666-5.21618 2.9994"/><path id="path13" d="M956.99206-4.41979c-2.0377.80624-3.03766 2.46844-3.7999 4.05764"/></g><g id="g14" fill-opacity="1" stroke-dashoffset="0" stroke-linecap="square" stroke-linejoin="miter" stroke-opacity="1" stroke-width=".852" transform="translate(-.132 -149.168)"><ellipse id="ellipse13" cx="1193.299" cy="-87.545" fill="#000" stroke="#892ca0" rx="1.87" ry="1.943" transform="rotate(-1.455)"/><ellipse id="ellipse14" cx="-1192.73" cy="-88.092" fill="#fff" stroke="none" rx=".919" ry=".968" transform="matrix(-.99968 .02539 .02538 .99968 0 0)"/></g><ellipse id="ellipse15" cx="1214.173" cy="-221.07" fill="#f1f1f1" fill-opacity="1" stroke="none" stroke-dashoffset="6" stroke-linecap="square" stroke-linejoin="miter" stroke-opacity="1" stroke-width=".852" opacity="1" rx="1.219" ry="1.278" transform="rotate(-2.015) skewX(-.002)"/><path id="path15" fill="#f1f1f1" fill-opacity="1" stroke="none" stroke-linejoin="round" stroke-opacity="1" stroke-width=".852" d="M1196.6606-258.19566a8.23516 7.24297 0 0 0-7.6956 4.68912c4.7591.2089 10.6723.19768 15.4021.0114a8.23516 7.24297 0 0 0-7.7065-4.7005z" opacity="1"/></g><path id="path16" fill="none" fill-opacity="1" stroke="#3c6eb4" stroke-linejoin="round" stroke-opacity="1" stroke-width="1.374" d="M-441.19238-147.76894c-6.18191 2.47555-19.23662 1.9851-31.5371 2.03356-12.30048.0485-26.99296-.47221-29.4343-2.93479"/><path id="path17" fill="#d7d8da" fill-opacity="1" stroke="#000" stroke-linejoin="round" stroke-opacity="1" stroke-width="1.374" d="M-476.82225-137.27468c0 1.74289 0 3.45904-.0294 5.09968 10.91678 2.00336 21.81435 2.04244 32.05407.0313-.0727-1.55033-.12288-3.20973-.18415-4.96015-.33558-9.58012-7.38786-16.29178-16.08778-16.29179-8.70009-.00002-15.75271 6.7118-15.75271 16.12094z"/><ellipse id="ellipse17" cx="-467.932" cy="-153.024" fill="#f1f1f1" fill-opacity="1" stroke="none" stroke-dashoffset="6" stroke-linecap="square" stroke-linejoin="miter" stroke-opacity="1" stroke-width="1.374" rx="1.966" ry="2.061" transform="rotate(-2.013)"/><path id="path18" fill="none" fill-opacity="1" stroke="#000" stroke-dashoffset="0" stroke-linecap="square" stroke-linejoin="miter" stroke-opacity="1" stroke-width=".916" d="M-450.7952-145.80336c-.43792-.54266-1.12583-.8748-1.82313-.88024-.65755-.005-1.31224.27864-1.75805.76203"/><path id="path19" fill="none" fill-opacity="1" stroke="#000" stroke-dashoffset="0" stroke-linecap="square" stroke-linejoin="miter" stroke-opacity="1" stroke-width=".916" d="M-470.66267-145.73375c.39874-.57207 1.06164-.95168 1.75684-1.00606.65557-.0513 1.32856.18584 1.8072.63674"/><ellipse id="ellipse19" cx="447.092" cy="-157.103" fill="#000" fill-opacity="1" stroke="#892ca0" stroke-dashoffset="0" stroke-linecap="square" stroke-linejoin="miter" stroke-opacity="1" stroke-width="1.374" rx="2.479" ry="2.575" transform="matrix(-.99938 .03513 .03514 .99938 0 0)"/><ellipse id="ellipse20" cx="-446.337" cy="-157.828" fill="#fff" fill-opacity="1" stroke="none" stroke-dashoffset="0" stroke-linecap="square" stroke-linejoin="miter" stroke-opacity="1" stroke-width="1.374" rx="1.219" ry="1.283" transform="rotate(-2.013) skewX(.001)"/><path id="path20" fill="none" fill-opacity="1" stroke="#3c6eb4" stroke-linejoin="round" stroke-opacity="1" stroke-width="1.374" d="M-441.8137-132.98859l-2.87591.82923c-10.34738 2.0268-21.24494 1.98772-32.16172-.0156l-4.37107-.81359"/><path id="path21" fill="none" fill-rule="evenodd" stroke="#60605b" stroke-dasharray="none" stroke-linecap="butt" stroke-linejoin="miter" stroke-miterlimit="4" stroke-opacity="1" stroke-width=".99" d="M957.14608-4.45025c-2.0377.80624-3.03766 2.46844-3.7999 4.05764m3.65911-4.9963c-2.45021.3102-3.99116 1.66666-5.21618 2.9994m4.53923-3.89798c-2.17461.00852-3.90258.72799-5.25392 1.62519" transform="matrix(-.93494 -.04607 -.04741 .9121 437.991 -86.85)"/><g id="g24" fill="none" fill-rule="evenodd" stroke="#60605b" stroke-linecap="butt" stroke-linejoin="miter" stroke-opacity="1" stroke-width=".99" transform="matrix(.93038 -.10135 .1037 .90763 -1354.186 -33.903)"><path id="path22" d="M956.32834-6.2875c-2.17461.00853-3.90258.728-5.25392 1.6252"/><path id="path23" d="M957.00529-5.38891c-2.45021.3102-3.99116 1.66666-5.21618 2.9994"/><path id="path24" d="M956.99206-4.41979c-2.0377.80624-3.03766 2.46844-3.7999 4.05764"/></g><ellipse id="ellipse24" cx="-464.843" cy="-153.146" fill="#000" fill-opacity="1" stroke="#892ca0" stroke-dashoffset="0" stroke-linecap="square" stroke-linejoin="miter" stroke-opacity="1" stroke-width="1.374" rx="2.479" ry="2.575" transform="rotate(-1.454) skewX(.001)"/><ellipse id="ellipse25" cx="465.598" cy="-153.87" fill="#fff" fill-opacity="1" stroke="none" stroke-dashoffset="0" stroke-linecap="square" stroke-linejoin="miter" stroke-opacity="1" stroke-width="1.374" rx="1.219" ry="1.283" transform="matrix(-.99968 .02538 .0254 .99968 0 0)"/><ellipse id="ellipse26" cx="-442.746" cy="-152.138" fill="#f1f1f1" fill-opacity="1" stroke="none" stroke-dashoffset="6" stroke-linecap="square" stroke-linejoin="miter" stroke-opacity="1" stroke-width="1.374" rx="1.966" ry="2.061" transform="rotate(-2.013)"/><ellipse id="ellipse27" cx="-455.261" cy="-151.744" fill="#fff" fill-opacity="1" stroke="#60605b" stroke-dashoffset="6" stroke-linecap="square" stroke-linejoin="miter" stroke-opacity="1" stroke-width="1.374" rx="5.166" ry="4.767" transform="rotate(-1.958) skewX(.113)"/><path id="path27" fill="gray" fill-opacity="1" stroke="#000" stroke-dashoffset="0" stroke-linecap="square" stroke-linejoin="miter" stroke-opacity="1" stroke-width=".916" d="M-458.44336-137.5779c-.16269-.41594-.17706-1.14424-.64937-1.24717l-1.40654-.30649-1.40447.31866c-.47092.10696-.47992.83539-.6388 1.25275-.16269.4175 2.0566 1.76195 2.0566 1.76195s2.20543-1.36354 2.04258-1.7797z"/><path id="path28" fill="#ff8080" fill-opacity="1" stroke="#000" stroke-linejoin="round" stroke-opacity="1" stroke-width=".916" d="M-460.7362-135.31601c-.12115.19235-.30132.34666-.50987.43825-.22292.0973-.47473.12271-.71547.0857-.16961-.0261-.33455-.086-.48564-.16909v.026c0 1.07482.87141 1.94615 1.94618 1.94615s1.946-.87133 1.946-1.94615a.4604.4604 0 0 0 0-.0223c-.15057.0813-.3117.13984-.48009.16545-.24074.0367-.49274.0121-.71565-.0857-.20838-.0916-.38802-.2459-.50969-.43825-.31828-.78325-.25961-.57731-.47577 0z"/><path id="path29" fill="none" fill-opacity="1" stroke="#3c6eb4" stroke-linejoin="round" stroke-opacity="1" stroke-width="1.374" d="M-458.77064-127.6947c-12.41384.25266-18.71067-.70982-29.09162-3.23324"/><path id="path30" fill="none" fill-opacity="1" stroke="#3c6eb4" stroke-linejoin="round" stroke-opacity="1" stroke-width="1.374" d="M-455.9013-124.32208c-5.5554.61207-10.15838.72756-15.08432.0139"/><path id="path31" fill="#d7d8da" fill-opacity="1" stroke="#000" stroke-linejoin="round" stroke-opacity="1" stroke-width="1.374" d="M-503.61272-141.79238c0 1.40777 0 2.794-.0225 4.11918 7.87159 1.6182 15.72952 1.64977 23.11289.0253-.0502-1.25225-.09-2.59261-.13327-4.0065-.24195-7.73821-5.62912-11.2833-11.59071-11.2833-5.96159 0-11.36641 3.54523-11.36641 11.14535z"/><path id="path32" fill="none" fill-opacity="1" stroke="#000" stroke-dashoffset="0" stroke-linecap="square" stroke-linejoin="miter" stroke-opacity="1" stroke-width=".916" d="M-485.20407-147.92322c-.31851-.37308-.80436-.59755-1.29491-.59827-.4666-.00068-.93008.20012-1.24871.54099"/><path id="path33" fill="none" fill-opacity="1" stroke="#000" stroke-dashoffset="0" stroke-linecap="square" stroke-linejoin="miter" stroke-opacity="1" stroke-width=".916" d="M-499.37838-147.88935c.29596-.38442.76349-.63142 1.24784-.65924.46944-.027.94708.15177 1.28349.48029"/><ellipse id="ellipse33" cx="480.379" cy="-160.297" fill="#000" fill-opacity="1" stroke="#892ca0" stroke-dashoffset="0" stroke-linecap="square" stroke-linejoin="miter" stroke-opacity="1" stroke-width="1.374" rx="2.174" ry="2.234" transform="matrix(-.9994 .03475 .03552 .99937 0 0)"/><ellipse id="ellipse34" cx="-479.717" cy="-160.925" fill="#fff" fill-opacity="1" stroke="none" stroke-dashoffset="0" stroke-linecap="square" stroke-linejoin="miter" stroke-opacity="1" stroke-width="1.374" rx="1.069" ry="1.113" transform="rotate(-1.992) skewX(.044)"/><ellipse id="ellipse35" cx="-494.482" cy="-155.966" fill="#000" fill-opacity="1" stroke="#892ca0" stroke-dashoffset="0" stroke-linecap="square" stroke-linejoin="miter" stroke-opacity="1" stroke-width="1.374" rx="2.174" ry="2.234" transform="rotate(-1.439) skewX(.032)"/><path id="path35" fill="#fff" fill-opacity="1" stroke="#60605b" stroke-dashoffset="6" stroke-linecap="square" stroke-linejoin="miter" stroke-opacity="1" stroke-width="1.374" d="M-492.31258-142.58811c-2.04693.0696-3.65101 1.65127-3.58282 3.53275.0238.63822.24237 1.94483.63055 2.47322 2.06007.11123 4.10755.12351 6.10045.0438.46757-.60775.70688-2.02662.68151-2.76926-.0683-1.8814-1.78285-3.35012-3.82969-3.28054z"/><ellipse id="ellipse36" cx="495.144" cy="-156.595" fill="#fff" fill-opacity="1" stroke="none" stroke-dashoffset="0" stroke-linecap="square" stroke-linejoin="miter" stroke-opacity="1" stroke-width="1.374" rx="1.069" ry="1.113" transform="matrix(-.99968 .0251 .02567 .99967 0 0)"/><path id="path36" fill="gray" fill-opacity="1" stroke="#000" stroke-dashoffset="0" stroke-linecap="square" stroke-linejoin="miter" stroke-opacity="1" stroke-width=".916" d="M-490.68885-139.25523c-.11942-.30312-.13153-.83386-.47992-.90887l-1.03946-.22336-1.03808.23222c-.34805.0779-.35462.6088-.47214.91293-.11942.30426 1.52008 1.28402 1.52008 1.28402s1.62998-.99367 1.50952-1.29694z"/><path id="path37" fill="none" fill-opacity="1" stroke="#3c6eb4" stroke-linejoin="round" stroke-opacity="1" stroke-width="1.374" d="M-505.35243-134.46781c4.78315 1.26171 8.33422 1.63659 13.39134 1.65487"/><ellipse id="ellipse37" cx="-479.569" cy="-155.418" fill="#f1f1f1" fill-opacity="1" stroke="none" stroke-dashoffset="6" stroke-linecap="square" stroke-linejoin="miter" stroke-opacity="1" stroke-width="1.374" rx="1.618" ry="1.697" transform="rotate(-2.013)"/><ellipse id="ellipse38" cx="-494.214" cy="-155.932" fill="#f1f1f1" fill-opacity="1" stroke="none" stroke-dashoffset="6" stroke-linecap="square" stroke-linejoin="miter" stroke-opacity="1" stroke-width="1.374" rx="1.618" ry="1.697" transform="rotate(-2.013)"/><path id="path38" fill="none" fill-opacity="1" stroke="#3c6eb4" stroke-linejoin="round" stroke-opacity="1" stroke-width="1.374" d="M-506.66483-138.36006c9.56648 2.52339 20.50611 2.33448 28.38463.17319"/></g></svg>