<svg xmlns="http://www.w3.org/2000/svg" id="Layer_1" viewBox="0 0 74.67 97.83"><defs><style>.cls-1{fill:#36a1ff}</style></defs><path d="M67.21,97.83H7.47c-4.06-.78-7.07-3.76-7.46-7.93V8.11C.34,3.72,3.58.45,7.96,0l41.65.09,1.34.77,22.88,22.84.85,1.64v64.57c-.31,3.88-3.52,7.46-7.46,7.93ZM45.96,5.73H7.95c-.54,0-2.06,1.41-2.11,2.1v82.18c.38,1.17,1.44,2.02,2.68,2.11l58.32-.1c.69-.05,2.1-1.57,2.1-2.11V28.66h-15.41c-3.23,0-7.56-4.31-7.56-7.55V5.73ZM64.72,22.93l-13.02-12.99v10.8c0,.58,1.63,2.2,2.2,2.2h10.82Z" class="cls-1"/><path d="M19.48,40.55l35.38-.05c3.43.6,3.44,5.14,0,5.74H19.82c-3.26-.56-3.49-4.76-.34-5.69Z" class="cls-1"/><path d="M19.48,52.02l35.38-.05c3.43.6,3.44,5.14,0,5.74H19.82c-3.26-.56-3.49-4.76-.34-5.69Z" class="cls-1"/><path d="M19.48,63.48l35.38-.05c3.43.6,3.44,5.14,0,5.74H19.82c-3.26-.56-3.49-4.76-.34-5.69Z" class="cls-1"/><path d="M19.48,74.95l24.07-.03c3.3.79,3.17,5.15-.18,5.73l-23.73-.02c-3.12-.74-3.24-4.76-.16-5.68Z" class="cls-1"/></svg>