<svg xmlns="http://www.w3.org/2000/svg" id="Layer_3" viewBox="0 0 122.72 155.03"><defs><style>.cls-1{fill:#002a69}.cls-2{fill:#0480fd}</style></defs><path d="M22.43,143.31c0,1.01-.15,1.9-.45,2.66-.3.76-.71,1.41-1.23,1.92-.52.52-1.14.9-1.86,1.16-.72.26-1.49.39-2.32.39s-1.56-.13-2.28-.39-1.34-.65-1.87-1.16-.95-1.16-1.26-1.92c-.31-.77-.46-1.65-.46-2.66s.16-1.9.48-2.66c.32-.76.75-1.41,1.28-1.93.54-.52,1.16-.91,1.87-1.17.71-.26,1.45-.39,2.24-.39s1.56.13,2.28.39c.71.26,1.34.65,1.87,1.17.53.52.95,1.17,1.26,1.93.31.76.46,1.65.46,2.66ZM13.44,143.31c0,.58.07,1.1.21,1.56s.35.86.61,1.2c.27.33.59.59.98.77.38.18.83.27,1.33.27s.93-.09,1.32-.27c.39-.18.72-.44.99-.77.27-.33.47-.73.61-1.2s.21-.99.21-1.56-.07-1.1-.21-1.57c-.14-.47-.35-.87-.61-1.21-.27-.33-.6-.59-.99-.77-.39-.18-.83-.27-1.32-.27s-.94.09-1.33.28c-.39.19-.71.45-.98.78-.27.33-.47.74-.61,1.21-.14.47-.21.99-.21,1.55Z"/><path d="M32.78,144.74c0,.69-.08,1.32-.25,1.89s-.42,1.05-.75,1.46-.74.73-1.22.95-1.05.34-1.68.34c-.35,0-.68-.03-.99-.1-.31-.07-.6-.16-.88-.29v3.37h-2.53v-11.78c.23-.07.49-.13.78-.2.29-.06.6-.12.93-.16.32-.04.65-.08.99-.11.33-.03.65-.04.96-.04.74,0,1.39.11,1.97.33s1.07.53,1.46.93c.4.4.7.89.91,1.47.21.58.31,1.22.31,1.94ZM30.2,144.8c0-.78-.18-1.41-.53-1.88-.35-.47-.87-.71-1.56-.71-.23,0-.44,0-.63.03-.19.02-.35.04-.48.06v4.57c.16.1.37.19.62.25.26.07.51.1.77.1,1.2,0,1.8-.81,1.8-2.43Z"/><path d="M34.31,144.8c0-.79.12-1.49.37-2.08s.56-1.09.96-1.49c.4-.4.85-.7,1.37-.9s1.05-.31,1.59-.31c1.27,0,2.27.39,3.01,1.16.74.78,1.1,1.92,1.1,3.43,0,.15,0,.31-.02.48s-.02.33-.03.47h-5.75c.06.52.3.93.73,1.24.43.31,1.01.46,1.73.46.46,0,.92-.04,1.37-.13.45-.08.81-.19,1.1-.31l.34,2.06c-.14.07-.32.14-.54.2-.23.07-.48.13-.76.18s-.58.09-.89.13c-.32.03-.63.05-.95.05-.81,0-1.5-.12-2.1-.36-.6-.24-1.09-.56-1.48-.98-.39-.41-.68-.9-.87-1.47-.19-.57-.28-1.18-.28-1.84ZM40.26,143.83c-.01-.21-.05-.42-.11-.63-.06-.2-.16-.38-.29-.54-.13-.16-.29-.29-.49-.39-.2-.1-.44-.15-.74-.15s-.53.05-.73.14-.37.22-.51.38c-.14.16-.24.34-.31.55-.07.21-.13.42-.16.64h3.35Z"/><path d="M44.67,140.57c.43-.12.99-.24,1.67-.35s1.39-.16,2.14-.16,1.39.1,1.9.3c.5.2.9.48,1.2.84.29.36.5.79.63,1.29.12.5.19,1.05.19,1.67v5.05h-2.53v-4.74c0-.82-.11-1.39-.32-1.73-.22-.34-.62-.51-1.21-.51-.18,0-.37,0-.58.03-.2.02-.39.04-.54.06v6.9h-2.53v-8.64Z"/><path d="M60.22,149.44c-1.92,0-3.37-.53-4.38-1.6-1-1.06-1.5-2.58-1.5-4.54,0-.97.15-1.84.46-2.61.31-.76.73-1.41,1.26-1.94.53-.53,1.17-.93,1.9-1.2.74-.27,1.54-.41,2.4-.41.5,0,.95.04,1.36.11.41.07.77.16,1.07.25.31.1.56.2.77.3.2.1.35.18.44.24l-.76,2.14c-.36-.19-.79-.36-1.27-.49-.48-.14-1.03-.2-1.64-.2-.41,0-.81.07-1.2.2-.39.14-.74.35-1.04.65s-.54.69-.72,1.17c-.18.48-.27,1.05-.27,1.73,0,.54.06,1.05.18,1.52.12.47.31.88.58,1.22s.61.61,1.05.81.95.3,1.56.3c.38,0,.73-.02,1.04-.07.31-.04.58-.1.82-.16.24-.06.45-.13.63-.21.18-.08.35-.15.49-.22l.73,2.12c-.37.23-.9.43-1.58.61-.68.18-1.47.27-2.36.27Z"/><path d="M65.69,149.21v-12.78l2.53-.41v4.28c.17-.06.39-.11.65-.16.27-.05.52-.08.77-.08.73,0,1.33.1,1.81.3.48.2.87.48,1.16.84s.49.79.61,1.29.18,1.05.18,1.67v5.05h-2.53v-4.74c0-.82-.1-1.39-.31-1.73-.21-.34-.6-.51-1.16-.51-.23,0-.44.02-.64.06-.2.04-.38.08-.54.13v6.8h-2.53Z"/><path d="M84.07,144.72c0,.7-.1,1.35-.31,1.93-.2.58-.5,1.08-.88,1.5s-.85.73-1.39.96c-.54.23-1.14.34-1.81.34s-1.26-.11-1.79-.34c-.54-.23-1-.55-1.39-.96s-.69-.91-.9-1.5c-.22-.58-.32-1.23-.32-1.93s.11-1.34.33-1.92c.22-.58.53-1.07.92-1.48.39-.41.86-.73,1.39-.95.54-.23,1.12-.34,1.76-.34s1.24.11,1.78.34,1,.54,1.39.95c.39.41.69.9.9,1.48s.32,1.22.32,1.92ZM81.49,144.72c0-.78-.16-1.4-.47-1.84-.31-.45-.76-.67-1.33-.67s-1.03.22-1.34.67c-.32.45-.48,1.06-.48,1.84s.16,1.4.48,1.86c.32.46.76.69,1.34.69s1.02-.23,1.33-.69c.31-.46.47-1.08.47-1.86Z"/><path d="M91.42,142.51c-.23-.06-.49-.12-.8-.18-.31-.06-.63-.09-.99-.09-.16,0-.35.01-.57.04-.22.03-.39.06-.5.09v6.83h-2.53v-8.47c.45-.16.99-.31,1.61-.45s1.31-.21,2.07-.21c.14,0,.3,0,.49.03.19.02.39.04.58.07.19.03.39.06.58.1.19.04.36.09.49.14l-.42,2.09Z"/><path d="M92.61,144.8c0-.79.12-1.49.37-2.08s.56-1.09.96-1.49c.4-.4.85-.7,1.37-.9.52-.2,1.05-.31,1.59-.31,1.27,0,2.27.39,3.01,1.16.74.78,1.1,1.92,1.1,3.43,0,.15,0,.31-.02.48s-.02.33-.03.47h-5.75c.06.52.3.93.73,1.24.43.31,1.01.46,1.73.46.46,0,.92-.04,1.37-.13.45-.08.81-.19,1.1-.31l.34,2.06c-.14.07-.32.14-.54.2-.23.07-.48.13-.76.18s-.58.09-.89.13c-.32.03-.63.05-.95.05-.81,0-1.5-.12-2.1-.36-.6-.24-1.09-.56-1.48-.98-.39-.41-.68-.9-.87-1.47-.19-.57-.28-1.18-.28-1.84ZM98.55,143.83c-.01-.21-.05-.42-.11-.63-.06-.2-.16-.38-.29-.54-.13-.16-.29-.29-.49-.39-.2-.1-.44-.15-.74-.15s-.53.05-.73.14-.37.22-.51.38c-.14.16-.24.34-.31.55-.07.21-.13.42-.16.64h3.35Z"/><path d="M111.32,144.72c0,.7-.1,1.35-.31,1.93-.2.58-.5,1.08-.88,1.5s-.85.73-1.39.96c-.54.23-1.14.34-1.81.34s-1.26-.11-1.79-.34c-.54-.23-1-.55-1.39-.96s-.69-.91-.9-1.5c-.22-.58-.32-1.23-.32-1.93s.11-1.34.33-1.92c.22-.58.53-1.07.92-1.48.39-.41.86-.73,1.39-.95.54-.23,1.12-.34,1.76-.34s1.24.11,1.78.34,1,.54,1.39.95c.39.41.69.9.9,1.48s.32,1.22.32,1.92ZM108.74,144.72c0-.78-.16-1.4-.47-1.84-.31-.45-.76-.67-1.33-.67s-1.03.22-1.34.67c-.32.45-.48,1.06-.48,1.84s.16,1.4.48,1.86c.32.46.76.69,1.34.69s1.02-.23,1.33-.69c.31-.46.47-1.08.47-1.86Z"/><path d="M84.19,51.85c-.53-.94-1.53-1.52-2.61-1.52h-18.12V3c0-1.66-1.34-3-3-3s-3,1.34-3,3v47.33h-4.04c-1.66,0-3,1.34-3,3s1.34,3,3,3h4.04v55.13c.36-.07.72-.14,1.09-.2,1.63-.25,3.28-.27,4.91-.08v-21.83l2-3.33,18.69-31.16c.56-.93.57-2.08.04-3.02ZM65.46,74.36l-2,3.33v-21.37h12.82l-10.82,18.04Z" class="cls-1"/><path d="M106.68,91.45c-8.07-.66-11.22,2.03-18.2,3.75-9.65,2.37-14.21-2.28-22.97-3.39-.02,0-.03,0-.05,0v7.3c6.1,1.19,11.61,4.7,18.55,4.44,7.74-.29,13.42-5.32,21.6-4.79,3.66.24,7.09,1.82,10.64,3.1,1.71-2.01,3.33-4.1,4.81-6.3-4.58-1.09-8.51-3.62-14.38-4.1Z" class="cls-2"/><path d="M55.46,99.52v-7.43c-7.68,1.44-12.26,5.33-21.26,3.12-6.98-1.72-10.13-4.41-18.2-3.75-5.8.48-9.72,2.96-14.24,4.07,1.48,2.19,3.09,4.28,4.8,6.29,3.5-1.28,6.9-2.82,10.52-3.06,8.18-.53,13.86,4.5,21.6,4.79,6.26.23,11.37-2.59,16.79-4.02Z" class="cls-2"/><path d="M97.61,113.85c-.97,0-6.66,3.17-8.75,3.69-8.28,2.05-15.81-2.74-24.72-4.12-1.85-.29-3.73-.29-5.58,0-8.91,1.38-16.44,6.17-24.72,4.12-2.09-.52-7.79-3.68-8.75-3.69-.31,0-.53.07-.7.19-.68.48-.22,1.85.49,3.19.83.49,1.66.97,2.51,1.43,3.32,1.78,6.79,3.3,10.39,4.55,1.71.6,3.45,1.14,5.22,1.61,4.99-.99,10.17-3.04,15.1-4,2.15-.41,4.36-.41,6.5,0,4.96.96,10.18,3.04,15.2,4.01,1.79-.47,3.55-1.02,5.29-1.62,3.49-1.21,6.87-2.68,10.09-4.4.87-.46,1.73-.95,2.57-1.44.76-1.39,1.27-2.83.57-3.33-.16-.12-.39-.19-.7-.19Z" class="cls-2"/></svg>