<svg xmlns="http://www.w3.org/2000/svg" id="Layer_1" data-name="Layer 1" viewBox="0 0 200 200"><g><path fill="none" stroke="#000" stroke-linecap="round" stroke-linejoin="round" stroke-width="8" d="M123.67,103.63l20.55-25.33c2.78-3.94,7.97-5.34,12.35-3.34h0c5.72,2.61,7.65,9.78,4.02,14.91l-41.98,59.32c-2.7,3.82-6.27,6.94-10.41,9.12l-34.93,18.33c-7.42,3.9-16.6,1.04-20.49-6.38l-12.27-23.37c-4.17-7.95-3.94-17.57.85-25.17,2.27-3.61,5.2-7.16,8.87-9.71"/><path fill="none" stroke="#000" stroke-linecap="round" stroke-linejoin="round" stroke-width="8" d="M85.65,152.67l36.06-34.49c4.84-4.63,4.84-12.36,0-16.99h0c-4.55-4.36-11.72-4.36-16.27,0l-18.82,18s-19.91-4.32-30.44,12.13"/></g><path fill="none" stroke="#000" stroke-linecap="round" stroke-linejoin="round" stroke-width="8" d="M110.25,84.51l-16.84-5.19c-2.15-.66-4.48.13-5.78,1.97l-10.14,14.41c-2.89,4.11-9.36,2.12-9.44-2.91l-.27-17.62c-.03-2.25-1.51-4.22-3.66-4.88l-16.84-5.19c-4.81-1.48-4.91-8.25-.15-9.88l16.68-5.7c2.13-.73,3.55-2.74,3.51-4.99l-.27-17.62c-.08-5.03,6.33-7.22,9.35-3.19l10.57,14.1c1.35,1.8,3.71,2.53,5.83,1.8l16.68-5.7c4.76-1.63,8.82,3.79,5.93,7.9l-10.14,14.41c-1.29,1.84-1.26,4.3.09,6.1l10.57,14.1c3.02,4.02-.88,9.56-5.68,8.08Z"/></svg>