<svg xmlns="http://www.w3.org/2000/svg" id="Layer_1" data-name="Layer 1" viewBox="0 0 200 200"><path fill="#fff" stroke="#000" stroke-linecap="round" stroke-linejoin="round" stroke-width="8" d="M75.43,32.2l4.69,9.53c2.73-.38,5.48-.79,8.24-1.04,10.5-.92,21.13-.52,31.54,1.03.21-.06,1.29-2.77,1.5-3.22.66-1.41,1.31-2.86,2.05-4.24.16-.29.97-1.89,1.05-1.96.12-.11.23-.15.39-.14,12.4,2.21,24.56,5.94,35.88,11.41,19.32,28.37,28.87,62.52,26.4,96.95-.08,1.07-.12,2.36-.26,3.4-.03.26-.09.82-.16,1.02-.17.48-4.89,3.72-5.69,4.26-11.81,8.08-24.98,14.54-38.72,18.63-3.52-4.96-6.77-10.14-9.4-15.64,5.14-1.94,10.03-4.45,14.81-7.15.05-.2-.03-.21-.14-.32-.92-.92-2.41-1.69-3.35-2.67-9.47,4.44-19.59,7.65-29.99,9.13-19.96,2.84-40.38-.57-58.51-9.13-.8.95-2.62,1.81-3.36,2.66-.1.11-.17.15-.13.33,4.78,2.65,9.61,5.28,14.8,7.08-2.19,4.55-4.75,8.98-7.62,13.13-.37.54-1.29,2.03-1.68,2.38-.1.09-.17.2-.32.19-15.95-4.87-30.86-12.73-44.18-22.67-.12-1.49-.31-3-.42-4.49-2.33-32.86,5.86-64.01,22.99-91.84.62-1.01,2.83-4.83,3.54-5.36.54-.4,1.89-.91,2.58-1.22,4.72-2.16,9.96-4.08,14.92-5.64,6.04-1.9,12.27-3.48,18.55-4.4ZM69.26,88.91c-10.13.97-15.29,12.5-13.69,21.6,2,11.41,14.67,18.76,24.52,10.83,12.28-9.89,6.36-34.08-10.83-32.43ZM127.41,88.91c-10.88,1.01-15.96,13.86-13.3,23.43,3.45,12.41,18.36,17.03,26.73,6.24,8.66-11.15,2.14-31.12-13.44-29.67Z"/><g><circle cx="165.76" cy="59.18" r="21.93" fill="#fff" stroke="#000" stroke-linecap="round" stroke-linejoin="round" stroke-width="8"/><g><line x1="165.76" x2="165.76" y1="49.08" y2="69.28" fill="none" stroke="#000" stroke-linecap="round" stroke-linejoin="round" stroke-width="8"/><line x1="155.66" x2="175.86" y1="59.18" y2="59.18" fill="none" stroke="#000" stroke-linecap="round" stroke-linejoin="round" stroke-width="8"/></g></g></svg>