<svg xmlns="http://www.w3.org/2000/svg" id="Layer_3" viewBox="0 0 337.81 76.68"><defs><style>.cls-1{fill:#002a69}.cls-2{fill:#0480fd}</style></defs><path d="M117.24,46.23c0,2.48-.37,4.66-1.11,6.54-.74,1.88-1.75,3.46-3.03,4.72-1.28,1.27-2.81,2.22-4.58,2.86-1.77.64-3.67.96-5.71.96s-3.85-.32-5.6-.96c-1.76-.64-3.29-1.59-4.6-2.86-1.31-1.27-2.34-2.84-3.09-4.72s-1.13-4.06-1.13-6.54.39-4.66,1.17-6.54,1.83-3.46,3.16-4.74c1.32-1.28,2.86-2.24,4.6-2.88,1.74-.64,3.57-.96,5.5-.96s3.85.32,5.6.96c1.76.64,3.29,1.6,4.6,2.88,1.31,1.28,2.34,2.86,3.09,4.74s1.13,4.06,1.13,6.54ZM95.13,46.23c0,1.42.17,2.7.52,3.85.35,1.14.85,2.12,1.5,2.95s1.46,1.46,2.4,1.9c.95.45,2.03.67,3.26.67s2.28-.22,3.24-.67c.96-.45,1.77-1.08,2.42-1.9.65-.82,1.16-1.8,1.5-2.95.35-1.14.52-2.42.52-3.85s-.17-2.71-.52-3.87c-.35-1.16-.85-2.15-1.5-2.97-.66-.82-1.46-1.46-2.42-1.9-.96-.45-2.04-.67-3.24-.67s-2.31.23-3.26.69c-.95.46-1.75,1.1-2.4,1.92-.65.82-1.16,1.81-1.5,2.97-.35,1.16-.52,2.43-.52,3.83Z"/><path d="M142.49,49.74c0,1.7-.21,3.25-.63,4.64s-1.03,2.59-1.84,3.59c-.81,1-1.81,1.78-3.01,2.34-1.2.56-2.58.84-4.14.84-.86,0-1.67-.08-2.42-.25s-1.48-.4-2.17-.71v8.28h-6.23v-28.97c.56-.17,1.2-.33,1.92-.48.72-.15,1.48-.29,2.28-.4.79-.11,1.6-.2,2.42-.27.82-.07,1.61-.1,2.36-.1,1.81,0,3.43.27,4.85.82,1.42.54,2.62,1.31,3.59,2.3.98.99,1.72,2.2,2.24,3.62.52,1.42.77,3.01.77,4.77ZM136.13,49.91c0-1.92-.43-3.46-1.3-4.62-.86-1.16-2.15-1.73-3.85-1.73-.56,0-1.07.02-1.55.06-.47.04-.86.09-1.17.15v11.24c.39.25.9.46,1.53.63s1.26.25,1.9.25c2.95,0,4.43-1.99,4.43-5.98Z"/><path d="M146.04,49.91c0-1.95.3-3.66.9-5.12.6-1.46,1.39-2.68,2.36-3.66.98-.98,2.1-1.71,3.36-2.22,1.27-.5,2.57-.75,3.91-.75,3.12,0,5.59.96,7.4,2.86,1.81,1.91,2.72,4.72,2.72,8.42,0,.36-.01.76-.04,1.19-.03.43-.06.82-.08,1.15h-14.13c.14,1.28.74,2.3,1.8,3.05,1.06.75,2.48,1.13,4.26,1.13,1.14,0,2.26-.1,3.37-.31,1.1-.21,2-.47,2.7-.77l.84,5.06c-.33.17-.78.33-1.34.5-.56.17-1.18.31-1.86.44-.68.12-1.41.23-2.19.31-.78.08-1.56.12-2.34.12-1.98,0-3.7-.29-5.16-.88-1.46-.58-2.68-1.39-3.64-2.4-.96-1.02-1.67-2.22-2.13-3.62s-.69-2.9-.69-4.51ZM160.67,47.53c-.03-.53-.12-1.04-.27-1.55-.15-.5-.39-.95-.71-1.34-.32-.39-.72-.71-1.21-.96-.49-.25-1.09-.38-1.82-.38s-1.3.12-1.8.36c-.5.24-.92.55-1.25.94-.33.39-.59.84-.77,1.36-.18.52-.31,1.04-.4,1.57h8.23Z"/><path d="M171.29,39.5c1.06-.31,2.42-.59,4.1-.86,1.67-.26,3.43-.4,5.27-.4s3.42.25,4.66.73c1.24.49,2.22,1.18,2.95,2.07.72.89,1.24,1.95,1.55,3.18.31,1.23.46,2.59.46,4.1v12.42h-6.23v-11.66c0-2.01-.27-3.43-.79-4.26s-1.52-1.25-2.97-1.25c-.45,0-.92.02-1.42.06-.5.04-.95.09-1.34.15v16.97h-6.23v-21.23Z"/><path d="M209.32,61.32c-4.71,0-8.3-1.31-10.76-3.93-2.47-2.62-3.7-6.34-3.7-11.16,0-2.4.38-4.54,1.13-6.42.75-1.88,1.78-3.47,3.09-4.77,1.31-1.3,2.87-2.28,4.68-2.95,1.81-.67,3.78-1,5.89-1,1.23,0,2.34.09,3.34.27,1,.18,1.88.39,2.63.63.75.24,1.38.48,1.88.73.5.25.86.45,1.09.59l-1.88,5.27c-.89-.47-1.93-.88-3.11-1.21-1.19-.33-2.53-.5-4.03-.5-1,0-1.99.17-2.95.5-.96.33-1.81.87-2.55,1.61-.74.74-1.33,1.69-1.78,2.86-.45,1.17-.67,2.59-.67,4.26,0,1.34.15,2.58.44,3.74.29,1.16.77,2.15,1.42,2.99s1.51,1.5,2.57,1.99c1.06.49,2.34.73,3.85.73.95,0,1.8-.06,2.55-.17s1.42-.24,2.01-.4c.59-.15,1.1-.33,1.55-.52.45-.19.85-.38,1.21-.54l1.8,5.22c-.92.56-2.22,1.06-3.89,1.5-1.67.45-3.61.67-5.81.67Z"/><path d="M222.57,60.74v-31.43l6.23-1v10.53c.42-.14.95-.27,1.61-.4.65-.12,1.29-.19,1.9-.19,1.78,0,3.27.25,4.45.73s2.13,1.18,2.84,2.07c.71.89,1.21,1.95,1.5,3.18.29,1.23.44,2.59.44,4.1v12.42h-6.23v-11.66c0-2.01-.26-3.43-.77-4.26-.52-.84-1.47-1.25-2.86-1.25-.56,0-1.08.05-1.57.15-.49.1-.93.2-1.32.31v16.72h-6.23Z"/><path d="M267.55,49.7c0,1.73-.25,3.31-.75,4.74-.5,1.44-1.23,2.66-2.17,3.68-.95,1.02-2.08,1.8-3.41,2.36-1.32.56-2.81.84-4.45.84s-3.09-.28-4.41-.84c-1.32-.56-2.46-1.34-3.41-2.36-.95-1.02-1.69-2.24-2.22-3.68-.53-1.43-.79-3.02-.79-4.74s.27-3.3.82-4.72,1.3-2.63,2.26-3.64,2.1-1.78,3.43-2.34c1.32-.56,2.77-.84,4.33-.84s3.04.28,4.37.84c1.32.56,2.46,1.34,3.41,2.34.95,1,1.69,2.22,2.22,3.64.53,1.42.79,3,.79,4.72ZM261.2,49.7c0-1.92-.38-3.43-1.15-4.54-.77-1.1-1.86-1.65-3.28-1.65s-2.52.55-3.3,1.65c-.78,1.1-1.17,2.61-1.17,4.54s.39,3.45,1.17,4.58c.78,1.13,1.88,1.69,3.3,1.69s2.51-.56,3.28-1.69c.77-1.13,1.15-2.65,1.15-4.58Z"/><path d="M285.4,44.27c-.56-.14-1.21-.29-1.96-.44s-1.56-.23-2.42-.23c-.39,0-.86.04-1.4.1-.54.07-.96.15-1.23.23v16.8h-6.23v-20.82c1.11-.39,2.43-.76,3.95-1.11,1.52-.35,3.21-.52,5.08-.52.33,0,.74.02,1.21.06.47.04.95.1,1.42.17.47.07.95.15,1.42.25.47.1.88.22,1.21.35l-1.04,5.14Z"/><path d="M288.12,49.91c0-1.95.3-3.66.9-5.12.6-1.46,1.39-2.68,2.36-3.66.98-.98,2.1-1.71,3.36-2.22,1.27-.5,2.57-.75,3.91-.75,3.12,0,5.59.96,7.4,2.86,1.81,1.91,2.72,4.72,2.72,8.42,0,.36-.01.76-.04,1.19-.03.43-.06.82-.08,1.15h-14.13c.14,1.28.74,2.3,1.8,3.05,1.06.75,2.48,1.13,4.26,1.13,1.14,0,2.26-.1,3.37-.31,1.1-.21,2-.47,2.7-.77l.84,5.06c-.33.17-.78.33-1.34.5-.56.17-1.18.31-1.86.44-.68.12-1.41.23-2.19.31-.78.08-1.56.12-2.34.12-1.98,0-3.7-.29-5.16-.88-1.46-.58-2.68-1.39-3.64-2.4-.96-1.02-1.67-2.22-2.13-3.62s-.69-2.9-.69-4.51ZM302.75,47.53c-.03-.53-.12-1.04-.27-1.55-.15-.5-.39-.95-.71-1.34-.32-.39-.72-.71-1.21-.96-.49-.25-1.09-.38-1.82-.38s-1.3.12-1.8.36c-.5.24-.92.55-1.25.94-.33.39-.59.84-.77,1.36-.18.52-.31,1.04-.4,1.57h8.23Z"/><path d="M333.93,49.7c0,1.73-.25,3.31-.75,4.74-.5,1.44-1.23,2.66-2.17,3.68-.95,1.02-2.08,1.8-3.41,2.36-1.32.56-2.81.84-4.45.84s-3.09-.28-4.41-.84c-1.32-.56-2.46-1.34-3.41-2.36-.95-1.02-1.69-2.24-2.22-3.68-.53-1.43-.79-3.02-.79-4.74s.27-3.3.82-4.72,1.3-2.63,2.26-3.64,2.1-1.78,3.43-2.34c1.32-.56,2.77-.84,4.33-.84s3.04.28,4.37.84c1.32.56,2.46,1.34,3.41,2.34.95,1,1.69,2.22,2.22,3.64.53,1.42.79,3,.79,4.72ZM327.58,49.7c0-1.92-.38-3.43-1.15-4.54-.77-1.1-1.86-1.65-3.28-1.65s-2.52.55-3.3,1.65c-.78,1.1-1.17,2.61-1.17,4.54s.39,3.45,1.17,4.58c.78,1.13,1.88,1.69,3.3,1.69s2.51-.56,3.28-1.69c.77-1.13,1.15-2.65,1.15-4.58Z"/><path d="M50.89,31.87c-.31-.55-.9-.89-1.53-.89h-10.63V3.21c0-.97-.79-1.76-1.76-1.76s-1.76.79-1.76,1.76v27.76h-2.37c-.97,0-1.76.79-1.76,1.76s.79,1.76,1.76,1.76h2.37v32.34c.21-.04.42-.08.64-.11.95-.15,1.92-.16,2.88-.05v-12.8l1.17-1.96,10.97-18.28c.33-.54.33-1.22.02-1.77ZM39.91,45.08l-1.17,1.96v-12.54h7.52l-6.35,10.58Z" class="cls-1"/><path d="M64.09,55.1c-4.73-.39-6.58,1.19-10.68,2.2-5.66,1.39-8.34-1.34-13.48-1.99,0,0-.02,0-.03,0v4.28c3.58.7,6.81,2.75,10.88,2.6,4.54-.17,7.87-3.12,12.67-2.81,2.15.14,4.16,1.06,6.24,1.82,1-1.18,1.95-2.41,2.82-3.69-2.69-.64-4.99-2.12-8.43-2.41Z" class="cls-2"/><path d="M34.04,59.83v-4.36c-4.51.84-7.19,3.13-12.47,1.83-4.09-1.01-5.94-2.59-10.68-2.2-3.4.28-5.7,1.74-8.35,2.39.87,1.28,1.81,2.51,2.81,3.69,2.06-.75,4.05-1.66,6.17-1.79,4.8-.31,8.13,2.64,12.67,2.81,3.67.14,6.67-1.52,9.85-2.36Z" class="cls-2"/><path d="M58.76,68.24c-.57,0-3.91,1.86-5.14,2.17-4.86,1.2-9.27-1.61-14.5-2.42-1.08-.17-2.19-.17-3.27,0-5.23.81-9.64,3.62-14.5,2.42-1.23-.3-4.57-2.16-5.14-2.17-.18,0-.31.04-.41.11-.4.28-.13,1.08.29,1.87.49.29.97.57,1.47.84,1.94,1.05,3.98,1.94,6.1,2.67,1.01.35,2.03.67,3.06.94,2.93-.58,5.97-1.79,8.86-2.34,1.26-.24,2.56-.24,3.82,0,2.91.56,5.97,1.78,8.91,2.36,1.05-.28,2.08-.6,3.1-.95,2.05-.71,4.03-1.57,5.92-2.58.51-.27,1.01-.56,1.51-.85.44-.81.75-1.66.33-1.95-.1-.07-.23-.11-.41-.11Z" class="cls-2"/></svg>